HIERARCHY
ROOT Hips
{
	OFFSET 0.000000 0.000000 0.000000
	CHANNELS 6 Xposition Yposition Zposition Xrotation Yrotation Zrotation
	JOINT LeftUpLeg_virtual
	{
		OFFSET 0.000000 0.000000 0.000000
		CHANNELS 3 Xrotation Yrotation Zrotation
		JOINT LeftUpLeg
		{
			OFFSET 11.394100 -6.187798 -0.413800
			CHANNELS 3 Xrotation Yrotation Zrotation
			JOINT LeftLeg
			{
				OFFSET 0.430247 -32.302673 3.732800
				CHANNELS 3 Xrotation Yrotation Zrotation
				JOINT LeftFoot
				{
					OFFSET -0.430247 -48.264931 -6.423300
					CHANNELS 3 Xrotation Yrotation Zrotation
					JOINT LeftToeBase
					{
						OFFSET 4.230900 -16.068199 23.438400
						CHANNELS 3 Xrotation Yrotation Zrotation
						JOINT LeftToe_End
						{
							OFFSET 4.510700 0.695400 19.974600
							CHANNELS 3 Xrotation Yrotation Zrotation
							End Site
							{
								OFFSET 0 0 0
							}
						}
					}
				}
			}
		}
	}
	JOINT RightUpLeg_virtual
	{
		OFFSET 0.000000 0.000000 0.000000
		CHANNELS 3 Xrotation Yrotation Zrotation
		JOINT RightUpLeg
		{
			OFFSET -11.333700 -6.187798 -0.413800
			CHANNELS 3 Xrotation Yrotation Zrotation
			JOINT RightLeg
			{
				OFFSET -0.430392 -32.302628 3.733000
				CHANNELS 3 Xrotation Yrotation Zrotation
				JOINT RightFoot
				{
					OFFSET 0.430392 -48.264973 -6.423500
					CHANNELS 3 Xrotation Yrotation Zrotation
					JOINT RightToeBase
					{
						OFFSET -4.230900 -16.068199 23.438400
						CHANNELS 3 Xrotation Yrotation Zrotation
						JOINT RightToe_End
						{
							OFFSET -4.510700 0.695400 19.974600
							CHANNELS 3 Xrotation Yrotation Zrotation
							End Site
							{
								OFFSET 0 0 0
							}
						}
					}
				}
			}
		}
	}
	JOINT Spine_virtual
	{
		OFFSET 0.000000 0.000000 0.000000
		CHANNELS 3 Xrotation Yrotation Zrotation
		JOINT Spine
		{
			OFFSET -0.002400 12.777504 0.315300
			CHANNELS 3 Xrotation Yrotation Zrotation
			JOINT Spine1
			{
				OFFSET -0.002067 5.816869 0.032633
				CHANNELS 3 Xrotation Yrotation Zrotation
				JOINT Spine1_split
				{
					OFFSET -0.002067 5.816869 0.032633
					CHANNELS 3 Xrotation Yrotation Zrotation
					JOINT Spine2
					{
						OFFSET -0.002067 5.816869 0.032633
						CHANNELS 3 Xrotation Yrotation Zrotation
						JOINT Neck_virtual
						{
							OFFSET 0.000000 0.000000 0.000000
							CHANNELS 3 Xrotation Yrotation Zrotation
							JOINT Neck
							{
								OFFSET -0.003700 21.199493 -0.826900
								CHANNELS 3 Xrotation Yrotation Zrotation
								JOINT Head
								{
									OFFSET 0.000000 20.442200 4.834800
									CHANNELS 3 Xrotation Yrotation Zrotation
									JOINT HeadTop_End
									{
										OFFSET 0.000000 34.668396 4.968400
										CHANNELS 3 Xrotation Yrotation Zrotation
										End Site
										{
											OFFSET 0 0 0
										}
									}
								}
							}
						}
						JOINT LeftShoulder_virtual
						{
							OFFSET 0.000000 0.000000 0.000000
							CHANNELS 3 Xrotation Yrotation Zrotation
							JOINT LeftShoulder
							{
								OFFSET 3.288150 8.794197 -1.372250
								CHANNELS 3 Xrotation Yrotation Zrotation
								JOINT LeftShoulder_split
								{
									OFFSET 3.288150 8.794197 -1.372250
									CHANNELS 3 Xrotation Yrotation Zrotation
									JOINT LeftArm
									{
										OFFSET 11.953299 -2.279007 -0.146200
										CHANNELS 3 Xrotation Yrotation Zrotation
										JOINT LeftForeArm
										{
											OFFSET 18.448900 0.000000 0.000000
											CHANNELS 3 Xrotation Yrotation Zrotation
											JOINT LeftHand
											{
												OFFSET 29.527798 0.000000 0.000000
												CHANNELS 3 Xrotation Yrotation Zrotation
												End Site
												{
													OFFSET 0 0 0
												}
											}
										}
									}
								}
							}
						}
						JOINT RightShoulder_virtual
						{
							OFFSET 0.000000 0.000000 0.000000
							CHANNELS 3 Xrotation Yrotation Zrotation
							JOINT RightShoulder
							{
								OFFSET -3.249400 8.794197 -1.372250
								CHANNELS 3 Xrotation Yrotation Zrotation
								JOINT RightShoulder_split
								{
									OFFSET -3.249400 8.794197 -1.372250
									CHANNELS 3 Xrotation Yrotation Zrotation
									JOINT RightArm
									{
										OFFSET -11.953299 -2.279007 -0.146200
										CHANNELS 3 Xrotation Yrotation Zrotation
										JOINT RightForeArm
										{
											OFFSET -18.448900 0.000000 0.000000
											CHANNELS 3 Xrotation Yrotation Zrotation
											JOINT RightHand
											{
												OFFSET -29.527802 0.000000 0.000000
												CHANNELS 3 Xrotation Yrotation Zrotation
												End Site
												{
													OFFSET 0 0 0
												}
											}
										}
									}
								}
							}
						}
					}
				}
			}
		}
	}
}
MOTION
Frames: 9
Frame Time: 0.03333333
2.421999 103.087486 -4.797035 0.000000 0.000000 0.000000 -0.709179 0.001966 -2.960610 -40.324272 -0.687945 3.472152 53.562644 0.180344 0.396110 28.705181 -0.944177 12.523840 -15.414974 -1.086018 1.214668 0.000000 0.000000 0.000000 -1.107244 2.591262 -3.148747 -25.605805 -13.817760 3.495240 33.475495 4.245071 -2.753789 21.029825 -2.014308 -5.861696 -19.904460 1.057224 4.446814 0.000000 0.000000 0.000000 -4.580985 4.485362 -2.047499 7.622444 1.059211 -0.984718 -2.578028 -0.618589 1.953033 -0.129045 1.225337 -0.703549 0.000000 0.000000 0.000000 -3.079142 -0.185359 1.776357 -4.270940 -2.338328 0.833845 2.393612 0.756964 3.870092 0.000000 0.000000 0.000000 -2.911579 -0.096291 2.068637 0.295065 3.214582 -0.889274 0.635917 -1.354941 0.195128 2.769077 4.505211 -71.111504 23.603351 -13.392701 1.168498 0.000000 0.000000 0.000000 -2.138434 -0.136689 1.922494 1.595056 5.381881 4.954561 -4.897098 1.351498 -1.758436 -7.770061 8.079814 77.807329 11.987078 16.086467 -3.140655 0.000000 0.000000 0.000000 
2.039929 103.198921 -2.196270 0.000000 0.000000 0.000000 -0.928399 -0.819125 -2.880309 -42.805339 0.171820 3.155821 46.882961 0.826417 0.323250 29.288387 -0.715204 14.032564 -15.006752 -1.051216 1.560453 0.000000 0.000000 0.000000 -0.521338 1.852091 -3.289659 -25.285867 -13.495144 3.308096 34.341027 4.560491 -2.680597 22.762801 -1.698931 -6.374208 -22.371748 0.648781 4.965425 0.000000 0.000000 0.000000 -3.831075 3.795079 -2.723490 7.553902 1.284121 -0.783977 -2.575433 -0.577793 1.923053 -0.029494 0.762448 -0.523092 0.000000 0.000000 0.000000 -2.969389 -0.152466 1.749862 -4.176957 -2.131975 0.511895 2.746886 0.799510 3.863100 0.000000 0.000000 0.000000 -3.106509 -0.043388 2.039625 0.383617 3.629142 -1.131090 -0.059157 -1.714601 -0.200419 2.953322 4.625137 -70.755569 23.767581 -14.189760 1.411588 0.000000 0.000000 0.000000 -2.265642 -0.104365 1.940757 1.535695 5.459851 4.605728 -4.493559 1.608247 -1.643676 -8.607649 8.425522 77.525967 12.042566 15.713318 -3.340686 0.000000 0.000000 0.000000 
1.886897 103.581512 0.977686 0.000000 0.000000 0.000000 -0.954425 -1.501916 -2.690049 -45.341299 0.657494 2.185033 36.476014 1.038714 1.083736 32.590569 -0.785476 12.696829 -15.582769 -0.905266 1.340361 0.000000 0.000000 0.000000 -0.238097 0.669130 -3.216336 -23.612160 -13.722543 2.667842 35.239620 4.996166 -2.671517 23.115614 -0.441242 -7.586876 -26.393418 0.451985 5.278039 0.000000 0.000000 0.000000 -2.854851 2.825417 -3.291037 7.549241 1.587373 -0.211065 -2.577708 -0.500094 1.914910 0.465918 0.330493 -0.261300 0.000000 0.000000 0.000000 -2.897965 -0.110206 1.744301 -4.277896 -1.621169 -0.146617 3.075716 1.101962 3.372320 0.000000 0.000000 0.000000 -3.305944 0.041047 1.990673 0.487866 4.730046 -2.121309 -1.133113 -2.357426 -0.632680 3.477787 5.213246 -70.846520 24.353379 -14.966573 1.994299 0.000000 0.000000 0.000000 -2.308483 -0.054297 1.859480 1.538371 5.496358 3.952657 -4.151177 1.713832 -1.199073 -9.926880 9.568191 76.692984 11.905715 15.483257 -3.343622 0.000000 0.000000 0.000000 
2.052946 103.811371 4.246490 0.000000 0.000000 0.000000 -0.878881 -1.802478 -2.303513 -47.641819 0.920909 0.982182 25.230529 0.853885 2.272481 38.271623 -1.149938 8.936020 -18.341681 -0.654258 1.019289 0.000000 0.000000 0.000000 -0.116296 -0.634627 -2.909180 -20.710506 -14.559537 1.623966 35.257044 5.609562 -2.653815 21.500645 1.420008 -9.307395 -30.075160 0.643582 5.321138 0.000000 0.000000 0.000000 -2.087829 1.812179 -3.665073 7.590819 1.861987 0.570864 -2.558207 -0.440020 1.966874 0.981559 0.037004 0.076573 0.000000 0.000000 0.000000 -2.887313 -0.106865 1.826040 -4.570477 -0.863805 -0.962729 3.390168 1.578887 2.554262 0.000000 0.000000 0.000000 -3.468521 0.094700 1.992135 0.631158 6.380761 -3.644264 -2.195639 -3.035515 -0.818824 4.443908 6.070514 -71.250238 25.161848 -15.413978 2.745922 0.000000 0.000000 0.000000 -2.317238 -0.050896 1.747575 1.620234 5.438225 3.036036 -3.911636 1.635229 -0.688716 -11.273695 11.008732 75.758279 11.588720 15.875320 -3.158201 0.000000 0.000000 0.000000 
2.380911 103.600105 7.565807 0.000000 0.000000 0.000000 -0.879574 -1.937949 -1.858656 -50.306256 1.411294 -0.119876 16.221392 0.345700 3.428213 44.969153 -1.980859 4.123685 -22.334695 -0.288720 0.951411 0.000000 0.000000 0.000000 0.092119 -1.706799 -2.514420 -16.261837 -15.972404 0.604377 33.807435 6.362241 -2.665266 17.670336 3.547227 -10.896678 -32.536470 1.127012 5.091570 0.000000 0.000000 0.000000 -1.443596 0.980650 -3.828196 7.601437 2.027296 1.304434 -2.466034 -0.429757 2.104357 1.110213 0.038737 0.311082 0.000000 0.000000 0.000000 -2.932829 -0.175978 2.050858 -5.026942 0.002154 -1.697459 3.691551 2.107567 1.645213 0.000000 0.000000 0.000000 -3.576109 0.086737 2.101795 0.847316 8.256484 -5.344410 -2.853380 -3.494828 -0.730384 5.600030 6.822650 -71.807623 25.885348 -15.378396 3.406602 0.000000 0.000000 0.000000 -2.323594 -0.120676 1.695137 1.756478 5.295005 1.999169 -3.635046 1.648612 -0.266810 -12.315471 12.226232 75.238967 11.115643 17.070955 -2.801480 0.000000 0.000000 0.000000 
2.776113 102.553772 10.979175 0.000000 0.000000 0.000000 -0.937946 -2.314644 -1.431592 -52.837230 2.672767 -0.942793 11.008774 0.108478 4.123658 49.889170 -2.512559 0.606243 -25.104968 0.124453 0.854056 0.000000 0.000000 0.000000 0.213383 -2.010861 -2.221757 -10.454894 -17.621873 -0.002509 31.184680 7.115180 -2.696726 12.113184 5.420257 -11.531869 -33.184993 1.706444 4.662349 0.000000 0.000000 0.000000 -1.148440 0.316590 -3.710682 7.492761 2.016908 1.695691 -2.307033 -0.486222 2.304419 0.924127 0.221120 0.369541 0.000000 0.000000 0.000000 -3.010411 -0.318773 2.383708 -5.613625 0.835515 -2.152557 3.998190 2.602735 0.914701 0.000000 0.000000 0.000000 -3.612968 0.014170 2.326231 1.105762 9.865823 -6.802193 -3.064864 -3.806620 -0.517406 6.665384 7.210930 -72.409171 26.205691 -14.665449 3.755437 0.000000 0.000000 0.000000 -2.332933 -0.255518 1.769710 1.906735 5.124237 0.954256 -3.196882 1.656129 0.037715 -12.749415 12.797640 75.547315 10.564823 18.696328 -2.335474 0.000000 0.000000 0.000000 
2.938077 100.737099 14.601225 0.000000 0.000000 0.000000 -1.111594 -3.026321 -1.022288 -54.554920 5.049878 -1.214795 9.558134 0.320825 4.335850 50.814480 -2.153343 -0.167206 -25.815999 0.359289 1.292341 0.000000 0.000000 0.000000 0.157849 -1.784887 -1.939727 -3.848113 -18.898372 0.157505 28.204474 7.518191 -2.706745 5.529540 6.377630 -11.166809 -33.099250 2.076221 4.281677 0.000000 0.000000 0.000000 -1.353006 0.069785 -3.433336 7.193362 1.852243 1.626505 -2.094643 -0.587338 2.525735 0.760170 0.639465 0.175886 0.000000 0.000000 0.000000 -3.022395 -0.482559 2.751661 -6.239699 1.565221 -2.227776 4.319015 2.990659 0.552655 0.000000 0.000000 0.000000 -3.558006 -0.080054 2.610866 1.360687 10.876399 -7.752076 -2.844614 -4.020171 -0.112538 7.414853 7.115007 -73.017919 26.094418 -13.368952 3.803206 0.000000 0.000000 0.000000 -2.339022 -0.409491 1.932584 1.979992 4.928652 0.029410 -2.734678 1.573817 0.186076 -12.542606 12.509770 76.644421 10.019244 19.944163 -1.885430 0.000000 0.000000 0.000000 
2.910977 98.692352 18.116346 0.000000 0.000000 0.000000 -1.424124 -3.764013 -0.767201 -55.145697 8.349158 -1.056945 11.599701 0.096340 4.069463 48.411978 -1.741985 1.767058 -25.147252 0.332370 2.451588 0.000000 0.000000 0.000000 -0.264571 -1.249152 -1.684279 2.654968 -19.137278 1.124181 25.709851 7.256816 -2.916692 -1.546544 6.214133 -10.435725 -33.062562 2.059006 4.037205 0.000000 0.000000 0.000000 -1.725028 0.337353 -3.076451 6.718045 1.583998 1.180474 -1.823232 -0.653081 2.725028 0.652110 1.071618 -0.138140 0.000000 0.000000 0.000000 -2.901947 -0.586321 3.053499 -6.783491 2.093572 -1.933930 4.639298 3.171432 0.608173 0.000000 0.000000 0.000000 -3.390941 -0.129610 2.867719 1.586420 11.084845 -8.062302 -2.432435 -4.004283 0.232459 7.548338 6.557712 -73.731011 25.736409 -11.866029 3.662912 0.000000 0.000000 0.000000 -2.217034 -0.492028 2.128614 1.950715 4.761176 -0.707935 -2.340740 1.419043 0.414192 -11.682395 11.626770 78.231231 9.587727 20.208308 -1.579437 0.000000 0.000000 0.000000 
2.821561 96.849762 21.441124 0.000000 0.000000 0.000000 -1.827681 -4.404111 -0.614833 -54.951525 11.910201 -0.610648 16.202913 -1.335968 3.353378 44.769428 -2.368954 5.427407 -24.942840 0.019886 4.166285 0.000000 0.000000 0.000000 -0.896484 -0.613334 -1.395908 8.018008 -17.869928 2.415035 24.572898 6.152007 -3.237195 -7.732893 5.068278 -10.500444 -32.656586 1.907970 3.818483 0.000000 0.000000 0.000000 -2.185162 1.138392 -2.602013 6.037293 1.245899 0.448281 -1.492992 -0.638291 2.899740 0.636687 1.142713 -0.389642 0.000000 0.000000 0.000000 -2.645374 -0.585980 3.227453 -7.153618 2.404017 -1.423894 4.925605 3.152368 1.003314 0.000000 0.000000 0.000000 -3.112237 -0.101761 3.038863 1.751842 10.600753 -7.798119 -1.964114 -3.810090 0.397797 7.137581 5.912963 -74.650921 25.390112 -10.641183 3.565235 0.000000 0.000000 0.000000 -1.914996 -0.467273 2.319302 1.857892 4.621805 -1.270134 -2.143619 1.172028 0.658287 -10.211030 10.408463 79.874431 9.405336 19.310562 -1.490627 0.000000 0.000000 0.000000 
